<svg width="16px" height="16px" viewBox="0 0 16 16" version="1.1" xmlns="http://www.w3.org/2000/svg"><path d="M7.3,5.69c-0.187,-0.184 -0.288,-0.438 -0.28,-0.7c0,-0.28 0.09,-0.52 0.28,-0.7c0.19,-0.18 0.42,-0.28 0.7,-0.28c0.28,0 0.52,0.09 0.7,0.28c0.18,0.19 0.28,0.42 0.28,0.7c0,0.28 -0.09,0.52 -0.28,0.7c-0.185,0.188 -0.436,0.296 -0.7,0.3c-0.28,0 -0.52,-0.11 -0.7,-0.3Zm1.7,2.3c-0.02,-0.25 -0.11,-0.48 -0.31,-0.69c-0.2,-0.19 -0.42,-0.3 -0.69,-0.31l-1,0c-0.27,0.02 -0.48,0.13 -0.69,0.31c-0.2,0.2 -0.3,0.44 -0.31,0.69l1,0l0,3c0.02,0.27 0.11,0.5 0.31,0.69c0.2,0.2 0.42,0.31 0.69,0.31l1,0c0.27,0 0.48,-0.11 0.69,-0.31c0.2,-0.19 0.3,-0.42 0.31,-0.69l-1,0l0,-3.01l0,0.01Zm-1,-5.69c-3.14,0 -5.7,2.54 -5.7,5.68c0,3.14 2.56,5.7 5.7,5.7c3.14,0 5.7,-2.55 5.7,-5.7c0,-3.15 -2.56,-5.69 -5.7,-5.69l0,0.01Zm0,-1.32c3.86,0 7,3.14 7,7c0,3.86 -3.14,7 -7,7c-3.86,0 -7,-3.12 -7,-7c0,-3.88 3.14,-7 7,-7Z"/></svg>