<svg width="16px" height="16px" viewBox="0 0 16 16" version="1.1" xmlns="http://www.w3.org/2000/svg"><path d="M0,2c0,-0.549 0.451,-1 1,-1l14,0c0.549,0 1,0.451 1,1l0,9c0,0.549 -0.451,1 -1,1l-8,0l-4,4l0,-4l-2,0c-0.549,0 -1,-0.451 -1,-1l0,-9Zm15,9l0,-9l-14,0l0,9l3,0l0,2.5l2.5,-2.5l8.5,0Zm-8.348,-3.25l1.5,0l0,1.5l-1.5,0l0,-1.5Zm-0.051,-2.348l-1.601,0c0,-1.201 1.201,-2.402 2.402,-2.402c1.201,0 2.402,0.801 2.402,2.002c0,1.709 -1.595,2 -1.601,2.001l-1.602,0c0,-0.44 0.361,-0.8 0.801,-0.8l0.4,0c0.224,0 0.401,-0.177 0.401,-0.401l0,-0.8c0,-0.225 -0.177,-0.401 -0.401,-0.401l-0.8,0c-0.225,0 -0.401,0.176 -0.401,0.401l0,0.4Z"/></svg>