<svg width="16px" height="16px" viewBox="0 0 16 16" version="1.1" xmlns="http://www.w3.org/2000/svg"><path d="M8.4,13l-5.81,0c-0.59,0 -0.59,-0.41 -0.59,-1c0,-0.59 0,-1 0.59,-1l5.81,0c0.59,0 0.59,0.41 0.59,1c0,0.59 0,1 -0.59,1Zm5.01,0l-2.81,0c-0.59,0 -0.59,-0.41 -0.59,-1c0,-0.59 0,-1 0.59,-1l2.81,0c0.59,0 0.59,0.41 0.59,1c0,0.59 0,1 -0.59,1Zm-0.01,-4l-10.81,0c-0.59,0 -0.59,-0.41 -0.59,-1c0,-0.59 0,-1 0.59,-1l10.81,0c0.59,0 0.59,0.41 0.59,1c0,0.59 0,1 -0.59,1Zm0.01,-4l-5.82,0c-0.59,0 -0.59,-0.41 -0.59,-1c0,-0.59 0,-1 0.59,-1l5.82,0c0.59,0 0.59,0.41 0.59,1c0,0.59 0,1 -0.59,1Zm-8,0l-2.81,0c-0.59,0 -0.59,-0.41 -0.59,-1c0,-0.59 0,-1 0.59,-1l2.81,0c0.59,0 0.59,0.41 0.59,1c0,0.59 0,1 -0.59,1Z"/></svg>