<svg width="16px" height="16px" viewBox="0 0 16 16" version="1.1" xmlns="http://www.w3.org/2000/svg"><path d="M3.3,13.134c1.144,-0.735 1.7,-1.493 1.7,-2.759c-0.076,0.024 -0.142,0.024 -0.208,0.024c-0.597,0 -1.177,-0.405 -1.177,-1.135c0,-0.758 0.485,-1.229 1.177,-1.229c0.895,0 1.408,0.716 1.408,2.001c0,1.789 -0.824,3.074 -2.363,3.964l-0.537,-0.866Zm-3.295,0c1.144,-0.735 1.699,-1.493 1.699,-2.759c-0.075,0.024 -0.141,0.024 -0.207,0.024c-0.598,0 -1.177,-0.405 -1.177,-1.135c0,-0.758 0.485,-1.229 1.177,-1.229c0.89,0 1.403,0.716 1.403,2.001c0,1.789 -0.824,3.074 -2.363,3.964l-0.537,-0.866l0.005,0Zm12.395,-10.608c-1.144,0.735 -1.7,1.493 -1.7,2.759c0.076,-0.024 0.142,-0.024 0.208,-0.024c0.597,0 1.177,0.405 1.177,1.135c0,0.758 -0.485,1.229 -1.177,1.229c-0.895,0 -1.408,-0.716 -1.408,-2.001c0,-1.789 0.824,-3.074 2.363,-3.964l0.537,0.866Zm3.3,0l-0.005,0c-1.144,0.735 -1.699,1.493 -1.699,2.759c0.075,-0.024 0.141,-0.024 0.207,-0.024c0.598,0 1.177,0.405 1.177,1.135c0,0.758 -0.485,1.229 -1.177,1.229c-0.89,0 -1.403,-0.716 -1.403,-2.001c0,-1.789 0.824,-3.074 2.363,-3.964l0.537,0.866Z"/></svg>