<svg width="16px" height="16px" viewBox="0 0 16 16" version="1.1" xmlns="http://www.w3.org/2000/svg"><path d="M13.4,13c0.59,0 0.59,0.41 0.59,1c0,0.59 0,1 -0.59,1l-7.81,0c-0.59,0 -0.59,-0.41 -0.59,-1c0,-0.59 0,-1 0.59,-1l7.81,0Zm0,-4c0.59,0 0.59,0.41 0.59,1c0,0.59 0,1 -0.59,1l-10.81,0c-0.59,0 -0.59,-0.41 -0.59,-1c0,-0.59 0,-1 0.59,-1l10.81,0Zm0,-4c0.59,0 0.59,0.41 0.59,1c0,0.59 0,1 -0.59,1l-7.81,0c-0.59,0 -0.59,-0.41 -0.59,-1c0,-0.59 0,-1 0.59,-1l7.81,0Zm0,-4c0.59,0 0.59,0.41 0.59,1c0,0.59 0,1 -0.59,1l-10.81,0c-0.59,0 -0.59,-0.41 -0.59,-1c0,-0.59 0,-1 0.59,-1l10.81,0Z"/></svg>