<svg width="16px" height="16px" viewBox="0 0 16 16" version="1.1" xmlns="http://www.w3.org/2000/svg"><path d="M7.58,15c1.25,0 2.52,-0.31 3.56,-0.94l-0.42,-0.94c-0.84,0.52 -1.89,0.83 -3.03,0.83c-3.23,0 -5.64,-2.08 -5.64,-5.72c0,-4.37 3.23,-7.18 6.58,-7.18c3.45,0 5.22,2.19 5.22,5.2c0,2.39 -1.34,3.86 -2.5,3.86c-1.05,0 -1.36,-0.73 -1.05,-2.19l0.73,-3.75l-1.05,0l-0.11,0.72c-0.41,-0.63 -0.94,-0.83 -1.56,-0.83c-2.19,0 -3.66,2.39 -3.66,4.38c0,1.67 0.94,2.61 2.3,2.61c0.84,0 1.67,-0.53 2.3,-1.25c0.11,0.94 0.94,1.45 1.98,1.45c1.67,0 3.77,-1.67 3.77,-5c0,-3.64 -2.41,-6.25 -6.17,-6.25c-4.17,0 -7.83,3.33 -7.83,8.33c0,4.38 2.92,6.67 6.58,6.67Zm-0.31,-5c-0.73,0 -1.36,-0.52 -1.36,-1.67c0,-1.45 0.94,-3.22 2.41,-3.22c0.52,0 0.84,0.2 1.25,0.83l-0.52,3.02c-0.63,0.73 -1.25,1.05 -1.78,1.05l0,-0.01Z"/></svg>