<svg width="16px" height="16px" viewBox="0 0 16 16" version="1.1" xmlns="http://www.w3.org/2000/svg"><path d="M15.41,9.006l-7.825,0c-0.591,0 -0.591,-0.411 -0.591,-1.001c0,-0.59 0,-1.001 0.591,-1.001l7.815,0c0.59,0 0.59,0.411 0.59,1.001c0,0.59 0,1.001 -0.59,1.001l0.01,0Zm-5.824,-5.004c-0.59,0 -0.59,-0.41 -0.59,-1c0,-0.591 0,-1.001 0.59,-1.001l5.814,0c0.59,0 0.59,0.41 0.59,1.001c0,0.59 0,1 -0.59,1l-5.814,0Zm-2.001,8.005l7.815,0c0.59,0 0.59,0.411 0.59,1.001c0,0.59 0,1.001 -0.59,1.001l-7.815,0c-0.591,0 -0.591,-0.411 -0.591,-1.001c0,-0.59 0,-1.001 0.591,-1.001Zm-4.057,-7.054l-2.123,2.122l-1.415,-1.415l2.123,-2.122l-2.123,-2.123l1.415,-1.415l2.123,2.123l2.122,-2.123l1.415,1.415l-2.122,2.123l2.122,2.122l-1.415,1.415l-2.122,-2.122Z"/></svg>