<svg width="16px" height="16px" viewBox="0 0 16 16" version="1.1" xmlns="http://www.w3.org/2000/svg"><path d="M14,12.99c0,0.589 0,0.998 -0.59,0.998l-6.814,0c-0.59,0 -0.59,-0.41 -0.59,-0.999c0,-0.59 0,-0.999 0.59,-0.999l6.804,0c0.59,0 0.59,0.41 0.59,1l0.01,0Zm-7.404,-8.994l6.804,0c0.59,0 0.59,-0.41 0.59,-1c0,-0.589 0,-0.999 -0.59,-0.999l-6.804,0c-0.59,0 -0.59,0.41 -0.59,1c0,0.589 0,0.999 0.59,0.999Zm6.804,2.998l-6.804,0c-0.59,0 -0.59,0.41 -0.59,1c0,0.589 0,0.999 0.59,0.999l6.804,0c0.59,0 0.59,-0.41 0.59,-1c0,-0.59 0,-0.999 -0.59,-0.999Zm-9.392,-5.994l-0.72,0c-0.298,0.19 -0.578,0.25 -1.028,0.34l0,0.66l0.75,0l0,2.138l-0.84,0l0,0.859l2.837,0l0,-0.86l-0.999,0l0,-3.137Zm0.25,8.123c-0.17,0 -0.45,0.03 -0.66,0.06c0.53,-0.56 1.14,-1.249 1.14,-1.888c-0.02,-0.78 -0.56,-1.299 -1.36,-1.299c-0.589,0 -0.968,0.2 -1.378,0.64l0.58,0.579c0.19,-0.19 0.38,-0.38 0.639,-0.38c0.28,0 0.48,0.16 0.48,0.52c0,0.53 -0.77,1.199 -1.699,2.058l0,0.58l2.998,0l-0.09,-0.88l-0.66,0l0.01,0.01Zm-0.08,3.777l0,-0.03c0.44,-0.19 0.64,-0.47 0.64,-0.859c0,-0.7 -0.56,-1.11 -1.44,-1.11c-0.479,0 -0.888,0.19 -1.278,0.52l0.55,0.64c0.25,-0.2 0.44,-0.31 0.689,-0.31c0.27,0 0.42,0.13 0.42,0.36c0,0.27 -0.2,0.44 -0.86,0.44l0,0.749c0.83,0 0.98,0.17 0.98,0.47c0,0.25 -0.23,0.38 -0.58,0.38c-0.28,0 -0.56,-0.14 -0.81,-0.38l-0.479,0.659c0.3,0.36 0.77,0.56 1.409,0.56c0.83,0 1.529,-0.41 1.529,-1.16c0,-0.5 -0.31,-0.809 -0.77,-0.939l0,0.01Z"/></svg>