<svg width="16px" height="16px" viewBox="0 0 16 16" version="1.1" xmlns="http://www.w3.org/2000/svg"><path d="M4,13c0,0.59 0,1 -0.59,1l-0.82,0c-0.59,0 -0.59,-0.41 -0.59,-1c0,-0.59 0,-1 0.59,-1l0.81,0c0.59,0 0.59,0.41 0.59,1l0.01,0Zm2.59,-9l6.81,0c0.59,0 0.59,-0.41 0.59,-1c0,-0.59 0,-1 -0.59,-1l-6.81,0c-0.59,0 -0.59,0.41 -0.59,1c0,0.59 0,1 0.59,1Zm-3.18,3l-0.82,0c-0.59,0 -0.59,0.41 -0.59,1c0,0.59 0,1 0.59,1l0.81,0c0.59,0 0.59,-0.41 0.59,-1c0,-0.59 0,-1 -0.59,-1l0.01,0Zm0,-5l-0.82,0c-0.59,0 -0.59,0.41 -0.59,1c0,0.59 0,1 0.59,1l0.81,0c0.59,0 0.59,-0.41 0.59,-1c0,-0.59 0,-1 -0.59,-1l0.01,0Zm10,5l-6.82,0c-0.59,0 -0.59,0.41 -0.59,1c0,0.59 0,1 0.59,1l6.81,0c0.59,0 0.59,-0.41 0.59,-1c0,-0.59 0,-1 -0.59,-1l0.01,0Zm0,5l-6.82,0c-0.59,0 -0.59,0.41 -0.59,1c0,0.59 0,1 0.59,1l6.81,0c0.59,0 0.59,-0.41 0.59,-1c0,-0.59 0,-1 -0.59,-1l0.01,0Z"/></svg>