<svg width="16px" height="16px" viewBox="0 0 16 16" version="1.1" xmlns="http://www.w3.org/2000/svg"><path d="M1.807,8.988l5.844,0c0.592,0 0.592,-0.412 0.592,-1.004c0,-0.592 0,-1.004 -0.592,-1.004l-5.834,0c-0.592,0 -0.592,0.412 -0.592,1.004c0,0.592 0,1.004 0.592,1.004l-0.01,0Zm7.852,-5.02c0.593,0 0.593,-0.412 0.593,-1.005c0,-0.592 0,-1.004 -0.593,-1.004l-7.842,0c-0.592,0 -0.592,0.412 -0.592,1.004c0,0.593 0,1.005 0.592,1.005l7.842,0Zm0,8.033l-7.842,0c-0.592,0 -0.592,0.411 -0.592,1.004c0,0.592 0,1.004 0.592,1.004l7.842,0c0.593,0 0.593,-0.412 0.593,-1.004c0,-0.593 0,-1.004 -0.593,-1.004Zm5.116,0.005l-4.021,-4.022l4.021,-4.021l0,8.043Z"/></svg>