<svg width="16px" height="16px" viewBox="0 0 16 16" version="1.1" xmlns="http://www.w3.org/2000/svg"><path d="M7.16,3.5c-2.43,1.56 -3.61,3.17 -3.61,5.86c0.16,-0.05 0.3,-0.05 0.44,-0.05c1.27,0 2.5,0.86 2.5,2.41c0,1.61 -1.03,2.61 -2.5,2.61c-1.9,0 -2.99,-1.52 -2.99,-4.25c0,-3.8 1.75,-6.53 5.02,-8.42l1.14,1.84Zm7,0c-2.43,1.56 -3.61,3.17 -3.61,5.86c0.16,-0.05 0.3,-0.05 0.44,-0.05c1.27,0 2.5,0.86 2.5,2.41c0,1.61 -1.03,2.61 -2.5,2.61c-1.89,0 -2.98,-1.52 -2.98,-4.25c0,-3.8 1.75,-6.53 5.02,-8.42l1.14,1.84l-0.01,0Z"/></svg>