<svg width="16px" height="16px" viewBox="0 0 16 16" version="1.1" xmlns="http://www.w3.org/2000/svg"><path d="M13.134,9.861c0.114,0.318 0.171,0.667 0.171,1.046l0,0c0,1.122 -0.418,1.988 -1.254,2.597c-0.837,0.609 -2.01,0.913 -3.521,0.913c-1.6,0 -2.847,-0.253 -3.742,-0.759l0,-1.695c0.58,0.294 1.2,0.525 1.86,0.694c0.668,0.168 1.309,0.253 1.926,0.253c0.953,0 1.687,-0.151 2.2,-0.451c0.514,-0.309 0.771,-0.774 0.771,-1.398c0,-0.469 -0.206,-0.869 -0.617,-1.199c-0.006,-0.006 2.202,-0.013 2.206,-0.001Zm1.866,-1.861l0,1l-12,0l0,-1l12,0Zm-9.903,-1.009c-0.228,-0.396 -0.342,-0.852 -0.342,-1.402c0,-0.983 0.4,-1.757 1.2,-2.322c0.799,-0.572 1.896,-0.858 3.29,-0.858c1.298,0 2.567,0.264 3.807,0.792l-0.649,1.485c-1.211,-0.499 -2.307,-0.748 -3.29,-0.748c-0.866,0 -1.519,0.136 -1.959,0.407c-0.44,0.272 -0.66,0.646 -0.66,1.123c0,0.747 0.679,1.318 1.045,1.523l-2.442,0Z"/></svg>